<mxfile host="app.diagrams.net" modified="2022-12-03T14:32:05.487Z" agent="5.0 (Windows NT 10.0; Win64; x64) AppleWebKit/537.36 (KHTML, like Gecko) Chrome/108.0.0.0 Safari/537.36" version="20.6.0" etag="upgn6dpyzn2W4H70TvIk" type="github">
  <diagram id="bYmhBhDfqhO-2Jraphs8" name="第 1 页">
    <mxGraphModel dx="2062" dy="1122" grid="1" gridSize="10" guides="1" tooltips="1" connect="1" arrows="1" fold="1" page="1" pageScale="1" pageWidth="827" pageHeight="1169" math="0" shadow="0">
      <root>
        <mxCell id="0" />
        <mxCell id="1" parent="0" />
        <mxCell id="yN2rEIOpdmA0N0vXQcu5-1" value="QT" style="rounded=1;whiteSpace=wrap;html=1;fillColor=#ffe6cc;strokeColor=#d79b00;" vertex="1" parent="1">
          <mxGeometry x="190" y="890" width="310" height="30" as="geometry" />
        </mxCell>
        <mxCell id="yN2rEIOpdmA0N0vXQcu5-2" value="Boost" style="rounded=1;whiteSpace=wrap;html=1;fillColor=#ffe6cc;strokeColor=#d79b00;" vertex="1" parent="1">
          <mxGeometry x="520" y="890" width="70" height="30" as="geometry" />
        </mxCell>
        <mxCell id="yN2rEIOpdmA0N0vXQcu5-4" value="Data" style="rounded=1;whiteSpace=wrap;html=1;fillColor=#dae8fc;strokeColor=#6c8ebf;" vertex="1" parent="1">
          <mxGeometry x="520" y="800" width="70" height="80" as="geometry" />
        </mxCell>
        <mxCell id="yN2rEIOpdmA0N0vXQcu5-5" value="Line" style="rounded=1;whiteSpace=wrap;html=1;fillColor=#dae8fc;strokeColor=#6c8ebf;" vertex="1" parent="1">
          <mxGeometry x="190" y="850" width="70" height="30" as="geometry" />
        </mxCell>
        <mxCell id="yN2rEIOpdmA0N0vXQcu5-6" value="Node" style="rounded=1;whiteSpace=wrap;html=1;fillColor=#dae8fc;strokeColor=#6c8ebf;" vertex="1" parent="1">
          <mxGeometry x="280" y="850" width="70" height="30" as="geometry" />
        </mxCell>
        <mxCell id="yN2rEIOpdmA0N0vXQcu5-7" value="Electron Component" style="rounded=1;whiteSpace=wrap;html=1;fillColor=#dae8fc;strokeColor=#6c8ebf;" vertex="1" parent="1">
          <mxGeometry x="370" y="850" width="130" height="30" as="geometry" />
        </mxCell>
        <mxCell id="yN2rEIOpdmA0N0vXQcu5-9" value="DrawTool" style="rounded=1;whiteSpace=wrap;html=1;fillColor=#fff2cc;strokeColor=#d6b656;" vertex="1" parent="1">
          <mxGeometry x="190" y="800" width="310" height="30" as="geometry" />
        </mxCell>
        <mxCell id="yN2rEIOpdmA0N0vXQcu5-10" value="GUI" style="rounded=1;whiteSpace=wrap;html=1;fillColor=#d5e8d4;strokeColor=#82b366;" vertex="1" parent="1">
          <mxGeometry x="190" y="750" width="400" height="30" as="geometry" />
        </mxCell>
      </root>
    </mxGraphModel>
  </diagram>
</mxfile>
